<svg xmlns="http://www.w3.org/2000/svg" version="1.1" xmlns:xlink="http://www.w3.org/1999/xlink" xmlns:svgjs="http://svgjs.com/svgjs" width="400" height="200" preserveAspectRatio="none" viewBox="0 0 400 200"><g mask="url(&quot;#SvgjsMask1028&quot;)" fill="none"><rect width="400" height="200" x="0" y="0" fill="rgba(120, 66, 18, 1)"></rect><path d="M0,137.537C26.695,139.979,55.106,135.222,76.643,119.26C97.679,103.669,106.614,77.302,114.823,52.438C122.321,29.727,128.036,5.577,121.798,-17.512C115.882,-39.41,97.948,-54.989,81.561,-70.673C66.532,-85.058,50.099,-97.069,30.734,-104.671C9.892,-112.852,-12.121,-120.437,-34.081,-116.068C-56.965,-111.515,-77.557,-98.07,-92.502,-80.153C-107.294,-62.419,-116.641,-39.896,-116.876,-16.804C-117.097,4.951,-101.78,22.594,-93.754,42.816C-85.195,64.381,-84.452,89.524,-68.131,106.014C-50.164,124.167,-25.435,135.21,0,137.537" fill="#60350e"></path><path d="M400 337.322C426.785 340.18399999999997 454.044 333.87 477.329 320.327 501.236 306.422 519.426 284.901 532.2529999999999 260.398 545.585 234.93 561.201 205.327 551.739 178.183 542.287 151.06799999999998 506.168 145.832 485.405 125.996 467.349 108.747 460.89300000000003 80.269 438.243 69.757 414.515 58.745000000000005 386.695 61.88900000000001 361.367 68.429 335.459 75.118 307.685 84.911 292.977 107.264 278.644 129.048 288.449 157.632 285.618 183.554 282.90999999999997 208.346 267.69100000000003 233.055 276.699 256.31 285.799 279.803 311.552 291.03 332.608 304.86400000000003 353.877 318.83799999999997 374.695 334.618 400 337.322" fill="#904f16"></path></g><defs><mask id="SvgjsMask1028"><rect width="400" height="200" fill="#ffffff"></rect></mask></defs></svg>