<svg xmlns="http://www.w3.org/2000/svg" version="1.1" xmlns:xlink="http://www.w3.org/1999/xlink" xmlns:svgjs="http://svgjs.com/svgjs" width="400" height="200" preserveAspectRatio="none" viewBox="0 0 400 200"><g mask="url(&quot;#SvgjsMask1030&quot;)" fill="none"><rect width="400" height="200" x="0" y="0" fill="rgba(81, 46, 95, 1)"></rect><path d="M0,174.278C35.34,181.552,75.114,183.616,105.577,164.281C136.076,144.923,154.428,108.665,159.684,72.925C164.432,40.644,140.031,12.7,132.542,-19.057C125.93,-47.093,134.144,-78.453,118.309,-102.515C101.683,-127.778,74.134,-145.239,44.761,-152.441C16.001,-159.493,-12.618,-147.732,-41.615,-141.728C-73.401,-135.147,-108.766,-136.74,-133.364,-115.56C-159.154,-93.354,-175.118,-59.403,-176.709,-25.407C-178.247,7.452,-159.402,36.968,-141.805,64.76C-126.1,89.564,-104.143,107.95,-80.908,125.895C-55.524,145.499,-31.414,167.812,0,174.278" fill="#41254c"></path><path d="M400 352.219C427.166 345.216 442.751 318.411 466.43899999999996 303.381 490.322 288.227 522.886 286.6 539.4970000000001 263.706 557.15 239.376 561.5260000000001 207.137 557.921 177.294 554.2719999999999 147.084 543.188 115.483 519.314 96.614 496.431 78.528 463.88 85.332 435.157 80.265 410.168 75.856 386.578 65.119 361.466 68.76599999999999 333.942 72.764 304.98900000000003 80.871 286.701 101.826 268.395 122.802 270.688 153.42000000000002 264.001 180.446 256.45 210.961 236.878 240.442 244.881 270.841 253.233 302.565 278.124 329.2 307.174 344.44 335.238 359.163 369.311 360.131 400 352.219" fill="#613772"></path></g><defs><mask id="SvgjsMask1030"><rect width="400" height="200" fill="#ffffff"></rect></mask></defs></svg>