<svg xmlns="http://www.w3.org/2000/svg" version="1.1" xmlns:xlink="http://www.w3.org/1999/xlink" xmlns:svgjs="http://svgjs.com/svgjs" width="400" height="200" preserveAspectRatio="none" viewBox="0 0 400 200"><g mask="url(&quot;#SvgjsMask1019&quot;)" fill="none"><rect width="400" height="200" x="0" y="0" fill="#0e2a47"></rect><path d="M0,181.893C32.976,176.096,52.186,143.124,80.67,125.525C109.867,107.486,154.379,108.224,169.274,77.305C184.137,46.45,159.503,11.53,151.641,-21.803C144.554,-51.851,147.98,-87.604,125.412,-108.67C103.05,-129.544,67.365,-120.958,37.647,-128.213C9.696,-135.036,-15.669,-154.732,-44.056,-150.04C-73.639,-145.15,-96.199,-122.785,-118.232,-102.448C-142.669,-79.893,-171.748,-58.208,-178.765,-25.702C-185.91,7.394,-168.896,39.925,-155.698,71.105C-142.152,103.106,-129.533,137.352,-101.219,157.499C-72.357,178.036,-34.888,188.026,0,181.893" fill="#0b2239"></path><path d="M400 350.937C428.133 346.828 454.829 337.88800000000003 478.38 321.962 501.524 306.31100000000004 517.967 284.246 533.2280000000001 260.843 550.917 233.716 579.524 206.899 574.246 174.947 568.96 142.947 528.648 131.438 507.755 106.629 486.44 81.319 482.20799999999997 37.47399999999999 450.501 28.00800000000001 418.816 18.549000000000007 391.816 54.96000000000001 359.597 62.399 324.369 70.53299999999999 282.168 50.861999999999995 253.899 73.402 225.608 95.959 222.923 138.03 219.556 174.056 216.313 208.764 219.548 244.106 235.028 275.34000000000003 250.225 306.003 274.271 332.973 305.382 347.22900000000004 334.669 360.65 368.122 355.59299999999996 400 350.937" fill="#113255"></path></g><defs><mask id="SvgjsMask1019"><rect width="400" height="200" fill="#ffffff"></rect></mask></defs></svg>