<svg xmlns="http://www.w3.org/2000/svg" version="1.1" xmlns:xlink="http://www.w3.org/1999/xlink" xmlns:svgjs="http://svgjs.com/svgjs" width="400" height="200" preserveAspectRatio="none" viewBox="0 0 400 200"><g mask="url(&quot;#SvgjsMask1023&quot;)" fill="none"><rect width="400" height="200" x="0" y="0" fill="rgba(24, 106, 59, 1)"></rect><path d="M0,148.07C27.048,143.644,50.353,128.898,72.211,112.362C92.678,96.879,110.423,78.617,122.051,55.739C134.042,32.147,141.239,6.349,139.515,-20.059C137.702,-47.828,126.692,-73.432,112.07,-97.109C95.273,-124.308,79.273,-156.59,48.95,-166.709C18.488,-176.875,-13.894,-160.855,-43.786,-149.12C-71.482,-138.247,-96.031,-122.472,-117.141,-101.503C-139.632,-79.162,-164.696,-55.707,-169.39,-24.355C-174.092,7.045,-156.061,36.381,-142.052,64.873C-128.411,92.615,-115.858,123.147,-89.182,138.77C-62.859,154.187,-30.106,152.996,0,148.07" fill="#13552f"></path><path d="M400 333.307C430.864 334.885 461.017 350.055 490.519 340.851 524.075 330.38300000000004 561.238 312.171 573.428 279.202 585.629 246.204 558.598 212.607 550.606 178.346 543.448 147.659 548.184 113.228 528.9010000000001 88.306 509.26 62.91999999999999 477.64300000000003 48.81299999999999 446.04 43.20099999999999 416.235 37.90799999999999 387.307 49.327 358.308 58.00999999999999 329.466 66.64599999999999 295.223 69.493 277.337 93.712 259.59299999999996 117.738 275.195 152.088 267.515 180.952 258.31600000000003 215.525 217.391 244.358 228.177 278.469 238.654 311.604 282.134 321.321 315.241 331.887 342.717 340.656 371.197 331.834 400 333.307" fill="#1d7f47"></path></g><defs><mask id="SvgjsMask1023"><rect width="400" height="200" fill="#ffffff"></rect></mask></defs></svg>